<svg width="200" height="33" viewBox="0 0 200 33" fill="none" xmlns="http://www.w3.org/2000/svg">
<path d="M45.6597 2.86348C43.966 2.86348 42.6638 4.27169 42.6638 5.96402V7.23635H47.6295L47.6418 26.3172H52.1583L52.146 7.23223H57.1117V2.85936L45.6597 2.8676V2.86348Z" fill="black"/>
<path d="M67.9332 26.3094H60.0045C58.315 26.3094 57.1158 25.0412 57.1158 23.353V7.22852H61.5911V21.5947H66.3507V7.22852H70.826V23.353C70.826 25.0453 69.6269 26.3094 67.9373 26.3094H67.9332Z" fill="black"/>
<path d="M82.8385 26.3094V18.7371H78.6104V26.3094H74.0651V7.22852H84.0377C85.7314 7.22852 87.1407 8.52967 87.1407 10.222V14.4466C87.1407 16.1019 86.3289 17.086 85.0267 17.1231C86.436 17.1931 87.2478 18.5683 87.2478 20.2236V26.3135H82.8426L82.8385 26.3094ZM82.7355 11.309H78.5074V14.7266H82.7355V11.309Z" fill="black"/>
<path d="M99.4746 26.3094V11.4861H95.3166V26.3094H90.8784V7.22852H100.851C102.541 7.22852 103.95 8.52967 103.95 10.222V26.3135H99.4746V26.3094Z" fill="black"/>
<path d="M107.51 26.3094V7.22852H111.949V26.3135H107.51V26.3094Z" fill="black"/>
<path d="M125.725 7.19141H115.752V31.5922H117.199C118.892 31.5922 120.298 30.2869 120.298 28.5987V26.2764H126.611C127.979 26.2764 128.824 25.3993 128.824 23.707V10.189C128.824 8.49668 127.418 7.19552 125.725 7.19552V7.19141ZM124.348 22.3317H120.199V11.449H124.348V22.3317Z" fill="black"/>
<path d="M147.442 26.2962H140.342C138.648 26.2962 137.234 24.9909 137.234 23.2986V10.0976C137.234 8.40531 138.541 7.17004 140.234 7.17004H147.442C149.136 7.17004 150.442 8.40531 150.442 10.0976V14.6846H145.991V11.44H141.718V22.0263H145.991V18.5346H150.442V23.3686C150.442 25.0609 149.136 26.2962 147.442 26.2962Z" fill="black"/>
<path d="M156.306 26.2962C154.612 26.2962 153.199 24.9909 153.199 23.2986V16.204C153.199 14.5117 154.048 13.6264 155.424 13.6264H162.31V11.3658H153.974L153.941 7.16592H164.255C165.739 7.16592 166.868 8.04708 166.868 9.74352V26.2962H156.306ZM162.413 17.4722H157.682V22.0592H162.413V17.4722Z" fill="black"/>
<path d="M179.511 14.5817C181.806 14.5817 183.15 15.747 183.15 18.0404V26.3003H179.123V18.6087H174.603V26.3003H170.045V7.17004H174.603V14.5817H175.027L178.736 7.17004H183.257L179.511 14.5817Z" fill="black"/>
<path d="M197.771 19.5557H190.885V22.2363H199.221V26.2962H188.944C187.46 26.2962 186.331 25.415 186.331 23.7186V7.17004H196.893C198.587 7.17004 200 8.47531 200 10.1718V16.9822C200 18.6746 199.151 19.5598 197.775 19.5598L197.771 19.5557ZM195.508 11.3H190.777V15.7099H195.508V11.3Z" fill="black"/>
<path d="M33.7461 11.9873C33.7461 12.255 33.5565 12.5185 33.1898 12.712L28.6856 14.6597L28.665 9.24504L28.5043 9.32327C28.5043 9.32327 28.5373 9.31092 28.5538 9.30268L33.0826 7.3386C33.4453 7.17801 33.7296 6.86919 33.7296 6.58508L33.7502 11.9873H33.7461Z" fill="black"/>
<path d="M24.3834 16.5411L19.3271 18.7275L18.8367 18.9416C17.9012 19.2834 16.1869 19.164 15.7213 18.991C13.224 18.0769 2.8187 14.2682 0.741763 13.5146C0.27198 13.3458 0 12.9546 0 12.5676V7.81591V7.80767V7.14062C0 7.23533 0.0164836 7.33415 0.0494508 7.42886C0.148353 7.70885 0.391486 7.96002 0.741763 8.08767C1.70193 8.43766 15.7213 13.564 15.7213 13.564C16.2116 13.7411 18.0661 13.8646 18.9644 13.4611C20.0235 12.9876 21.0908 12.5223 22.1911 12.0405C22.8958 11.7317 24.3587 11.1017 24.3587 11.1017L24.3834 16.5411Z" fill="black"/>
<path d="M33.7461 18.9097C33.7461 19.1773 33.5566 19.4408 33.1898 19.6343L28.6856 21.582L28.665 16.1673L33.0827 14.2568C33.4453 14.0962 33.6637 13.8697 33.7296 13.6309L33.7502 18.9097H33.7461Z" fill="black"/>
<path d="M24.3834 23.4637L19.3271 25.6501L18.8367 25.8643C17.9012 26.206 16.1869 26.0866 15.7213 25.9137C13.224 24.9996 2.8187 21.1908 0.741763 20.4373C0.27198 20.2685 0 19.8773 0 19.4903V14.7386V14.7303V14.0633C0 14.158 0.0164836 14.2568 0.0494508 14.3515C0.148353 14.6315 0.391486 14.8827 0.741763 15.0103C1.70193 15.3603 15.7213 20.4867 15.7213 20.4867C16.2116 20.6638 18.0661 20.7873 18.9644 20.3838C19.9452 19.9432 24.3587 18.0285 24.3587 18.0285L24.3834 23.4678V23.4637Z" fill="black"/>
<path d="M33.7461 25.8305C33.7461 26.0981 33.5566 26.3616 33.1898 26.5552L28.6856 28.5028L28.665 23.0882L33.0827 21.1776C33.4453 21.017 33.6637 20.7905 33.7296 20.5517L33.7502 25.1428V25.8305H33.7461Z" fill="black"/>
<path d="M24.3834 30.3799L19.3271 32.5664L18.8367 32.7805C17.9012 33.1222 16.1869 33.0028 15.7213 32.8299C13.224 31.9158 2.8187 28.107 0.741763 27.3535C0.27198 27.1847 0 26.7935 0 26.4065V21.6548V21.6465V20.9795C0 21.0742 0.0164836 21.173 0.0494508 21.2677C0.148353 21.5477 0.391486 21.7989 0.741763 21.9265C1.70193 22.2765 15.7213 27.4029 15.7213 27.4029C16.2117 27.58 18.0661 27.7035 18.9644 27.3C20.0235 26.8265 23.7653 25.2041 24.5853 24.8459L24.3587 24.9653L24.3793 30.3799H24.3834Z" fill="black"/>
<path d="M33.7008 6.71293C33.6348 6.95175 33.4206 7.17822 33.0579 7.3388L28.6444 9.24936L21.9892 6.77058L24.4658 5.68765L18.643 3.53828L8.80226 7.76703L14.6004 9.92464L17.6663 8.6276L24.3422 11.1146C23.7447 11.3699 20.007 12.9922 18.9479 13.4658C18.0496 13.8693 16.1952 13.7499 15.7089 13.5687C15.7089 13.5687 1.69781 8.4382 0.737642 8.0882C0.387365 7.96467 0.148353 7.7135 0.0494508 7.43351C0.0164836 7.3388 0 7.23998 0 7.14528C0 6.85705 0.152474 6.56881 0.486267 6.37529C0.486267 6.37529 13.8133 0.585974 13.8751 0.561268C15.1649 0.00539496 16.4424 -0.25813 18.1856 0.343036L32.8189 5.69177L32.8848 5.71648L32.9673 5.74942C33.3876 5.91412 33.6266 6.15294 33.6967 6.40411C33.7255 6.50705 33.7255 6.60999 33.6967 6.71293H33.7008Z" fill="black"/>
</svg>
